<svg xmlns="http://www.w3.org/2000/svg" width="2209" height="4225" fill="none"><g stroke="#2E2D2B" stroke-miterlimit="10" stroke-width="2" opacity=".03"><path d="M695.034 1470.35c-46.307 19.39-63.895 66.92-33.628 94.05 62.269 55.84 318.623 28.26 330.685-9.59 11.879-37.29-200.429-124.93-297.057-84.46Z"/><path d="M809.777 1346.16c105.774-37.05 283.383 226.75 210.073 289.03-45.078 38.29-154.193 33.51-243.176 20.92-83.534-11.81-202.894-60.11-232.342-140.34-15.593-42.58-6.233-103.26 26.791-124.51 25.558-16.44 60.061-9.04 67.672-11.78 36.286 15.05 41.611 20.9 70.521 24.44 37.787 4.61 71.371-47.57 100.461-57.76Z"/><path d="M917.098 1216.42c122.842 19.61 256.342 404.91 123.082 493.59-84.869 56.47-232.825 31.53-335.954 1.68-94.732-27.43-252.475-118.94-284.389-250.1-18.552-76.21 3.991-183.42 68.581-214.43 51.486-24.71 117.825-3.46 129.505-1.83 69.04 37.14 74.623 56.04 126.03 68.76 68.065 16.82 121.805-105.91 173.145-97.67Z"/><path d="M1016.64 1087.54c135.64 36.15 229.3 582.77 36.09 698.14-124.692 74.45-311.534 29.79-428.731-17.56-106.021-42.83-301.484-177.58-336.436-359.87-21.085-109.93 14.102-263.43 110.359-304.34 77.347-32.88 176.127.86 191.327 8.13 106.267 50.8 107.613 91.17 181.596 113.08 98.275 29.18 174.759-156.48 245.795-137.58Z"/><path d="M1110.2 964.515c150.21 52.155 202.02 760.085-50.9 902.705-164.689 92.05-390.339 28.15-521.503-36.79-117.433-58.13-350.37-236.12-388.539-469.65-23.461-143.55 24.213-343.41 152.149-394.281 103.252-41.019 233.688 7.094 253.159 18.066 136.982 77.195 140.525 126.505 237.062 157.445 128.508 41.55 228.652-208.707 318.572-177.495Z"/><path d="M200.688 830.724c129.113-49.144 291.126 13.269 314.992 28.018 167.327 103.42 173.514 161.458 292.572 201.728 158.762 53.69 283.168-261.799 391.218-217.418 165.97 68.173 175.28 938.308-137.88 1107.268-204.341 110.25-469.236 26.6-614.289-56.03-128.822-73.38-399.064-294.59-440.54-579.42-25.782-177.16 34.29-423.392 193.927-484.146ZM1597.82 741.066c-50.86-.426-111.85-88.615-66.24-103.341 26.34-8.518 96.09 4.953 123.48 28.925 38.59 33.734-22.25 74.719-57.24 74.416Z"/><path d="M1459.6 650.075c4.98-11.835 28.28-17.091 49.55-31.503 43.13-29.251 49.32-43.148 79.96-60.788 11.95-6.893 28.02-15.948 43.71-11.801 24.04 6.354 30.03 33.857 60.54 82.294 39.54 62.94 54.52 79.212 43.22 112.565-2.63 7.755-6.04 32.871-25.09 48.191-26.37 21.181-57.29 4.819-95.94 18.839-46.42 16.811-69.43 46.734-89.58 33.51-14.19-9.314-14.72-34.821-25.34-79.235-8.1-33.835-13.18-56.036-23.03-74.147-11.8-21.563-23.54-24.768-18-37.925Z"/><path d="M1381.86 674.742c.86-20.98 33.82-31.134 60.98-61.449 55.7-62.189 29.9-106.625 74.55-152.059 18.94-19.288 48.67-37.97 78.46-34.35 42.29 5.144 56.49 48.818 121.58 137.366 85.11 115.771 121.36 138.443 113.41 200.138-1.62 12.575-3.2 60.855-36.46 89.916-44.36 38.754-97.53 3.496-166.97 32.624-77.59 32.501-106.59 101.985-132.76 87.606-18.17-9.985-11.21-50.197-25.17-128.625-9.89-55.744-16-88.324-35.76-115.008-24.94-33.655-52.79-33.375-51.86-56.159Z"/><path d="M1304.04 699.14c-3.36-30.069 39.32-45.187 72.42-91.406 68.15-95.149 9.39-169.52 69.13-243.33 25.57-31.582 69.42-59.836 113.22-56.888 60.7 4.079 83.13 63.59 182.71 192.439 130.93 168.354 187.32 197.997 183.62 287.711-.73 17.494-.39 88.817-47.84 131.673-62.35 56.294-137.88 2.073-237.99 46.398-108.84 48.193-143.73 157.203-175.99 141.713-22.14-10.71-7.96-65.58-25.01-178.025-11.77-77.654-18.86-120.455-48.5-155.869-38.2-45.636-82.17-42.027-85.77-74.416Z"/><path d="M1226.05 723.471c-7.55-39.124 44.72-59.264 83.85-121.352 80.46-128.165-11.38-232.179 63.72-334.601 32.11-43.821 90.2-81.656 147.97-79.437 79.16 3.048 109.46 78.596 243.8 247.522 176.34 221.23 253.08 257.765 253.76 375.284.14 22.414 2.36 116.712-59.23 173.42-80.42 73.763-178.16.616-308.99 60.183-140.12 63.81-180.89 212.45-219.12 195.82-26.12-11.41-4.71-80.98-24.84-227.42-13.69-99.581-21.72-152.546-61.24-196.736-51.49-57.56-111.57-50.611-119.68-92.683Z"/><path d="M1147.9 747.79c12.64 51.778 88.8 41.467 153.58 110.952 49.4 52.976 58.38 116.084 73.98 237.588 23.17 180.44-5.44 264.73 24.66 276.82 44.25 17.79 90.89-170.49 262.31-249.92 161.48-74.82 281.65 17.42 380.01-73.97 75.82-70.456 71.6-187.728 70.62-215.174-5.23-145.29-102.2-188.752-323.96-462.857C1620 162.226 1581.86 70.663 1484.19 68.635c-71.74-1.49-144.1 45.949-182.71 101.985-90.43 131.124 34.67 264.837-58.29 425.873-45.05 78.036-107.04 103.129-95.29 151.297ZM1794.2 1581.16c-13.27-6.73-41.14 6.23-43.61 26.41-2.79 22.9 28.74 41.84 42.6 35.95 16.39-6.97 18.62-53.46 1.01-62.36Z"/><path d="M1831.59 1702.81c22.62-21.15 32.51-59.96 43.82-126.48 11.21-65.97 9.45-113.2-.4-116.63-5.37-1.84-20.58 12.62-33.63 23.23-24.43 19.79-66.24 17.59-76.96 19.73-39.23 7.85-50.75 22.42-67.15 50.32-7.59 12.89-25.29 41.47-33.08 75.09-11.88 50.91-65.14 66.6-58.65 87.01 5.46 17.04 58.22 21.17 92.43 21.66 49.04.69 98.65-1.27 133.62-33.93Z"/><path d="M1870.8 1759.66c37.19-37.79 51.82-101.21 74.35-219.81 22.89-119.18 22.74-200.93 11.46-203.97-8.46-2.33-35.87 27.13-59.16 48.19-43.91 39.86-122.51 33.3-138.71 35.86-73.87 11.41-92.07 38.74-120.7 90.41-11.93 21.52-44.65 73.97-59.56 135.91-22.95 94.89-131.74 119.74-122.74 154.92 7.53 29.29 108.41 33.78 171.89 31.38 89.64-3.49 180.34-9 243.17-72.89Z"/><path d="M1909.8 1816.15c51.78-54.42 70.98-142.5 104.86-313.15 34.4-172.42 36-288.5 23.34-291.39-11.61-2.69-51.19 41.69-84.66 73.26-63.28 60.04-178.77 49-200.46 51.89-108.49 14.48-133.47 54.97-174.26 130.51-16.27 30.14-63.99 106.47-86.04 196.7-33.98 138.88-198.31 172.86-186.82 222.82 9.59 41.55 158.63 46.59 251.35 41.08 130.21-7.34 262.15-16.55 352.69-111.72Z"/><path d="M1948.68 1872.6c66.4-71.05 90.16-183.8 135.38-406.5 45.96-225.64 49.32-376.01 35.22-378.8-14.75-2.95-66.53 56.17-110.16 98.28-82.77 80.07-235.02 64.66-262.2 67.97-143.11 17.36-175.07 71.11-227.82 170.59-20.69 38.74-83.34 138.97-112.51 257.5-45.04 182.86-264.92 225.98-250.91 290.73 11.65 53.79 208.83 59.16 330.81 50.8 170.74-11.51 343.98-24.07 462.19-150.57Z"/><path d="M1740.9 1170.3c-177.71 20.17-216.35 87.42-281.37 210.7-24.99 47.39-102.7 171.47-139 318.28-56.04 226.86-331.5 279.12-314.99 358.63 13.72 66.12 259.03 71.73 410.28 60.52 211.32-15.69 425.84-31.58 571.69-189.4 81.03-87.7 109.33-225.08 165.9-499.84 57.43-278.88 62.55-463.509 47.08-466.222-17.93-3.138-81.83 70.602-135.64 123.282-102.27 100.1-291.27 80.34-323.95 84.05ZM295.971 631.236c20.177 77.329 165.006 41.007 337.41 215.178 61.777 62.412 103.197 127.694 184.96 137.848 8.25 1.02 90.159 9.974 147.967-42.587 72.732-66.123 28.338-157.854 113.222-285.784 31.26-47.126 36.46-33.442 59.41-70.605 97.92-158.638-51.43-319.685 34.75-480.788 39.67-74.158 98.64-91.182 93.04-100.865-24.19-41.545-1025.283 419.227-970.759 627.603Z"/><path d="M840.76 878.545c4.955-.673 58.963 3.362 96.011-33.801 46.845-46.925 13.451-111.534 67.119-198.76 19.76-32.119 22.5-23.411 36.56-48.818 59.97-108.419-47.664-217.487 5.04-323.619 24.4-49.132 62.9-60.396 57.17-65.192-25.9-21.877-686.679 301.305-634.778 441.933 19.46 52.741 125.694 34.025 247.251 147.621 44.2 41.276 74.13 87.618 125.627 80.636Z"/><path d="M863.179 772.816c1.413-3.553 27.823-3.474 44.054-25.003 21.075-27.929-1.367-65.136 21.03-111.725 8.216-17.102 8.553-13.448 13.709-27.043 22.139-58.467-43.998-115.221-24.661-166.46 9.046-24.118 25.86-28.231 21.377-29.52-32.777 4.651-347.5 183.708-298.951 256.275 18.956 28.354 86.808 26.998 157.092 80.064 26.713 20.173 44.2 34.944 66.35 23.412Z"/><path d="M885.599 667.099c-17.398-50.825-85.889-68.106-110.976-49.312-36.992 27.749-5.437 63.881 36.992 70.605 31.712 4.987 93.892 36.872 73.984-21.293Z"/></g><g stroke="#2E2D2B" stroke-miterlimit="10" stroke-width="2" opacity=".03"><path d="M695.034 2754.65c-46.307-19.39-63.895-66.92-33.628-94.05 62.269-55.84 318.623-28.26 330.685 9.59 11.879 37.29-200.429 124.93-297.057 84.46Z"/><path d="M809.777 2878.84c105.774 37.05 283.383-226.75 210.073-289.03-45.078-38.29-154.193-33.51-243.176-20.92-83.534 11.81-202.894 60.11-232.342 140.34-15.593 42.58-6.233 103.26 26.791 124.51 25.558 16.44 60.061 9.04 67.672 11.78 36.286-15.05 41.611-20.9 70.521-24.44 37.787-4.61 71.371 47.57 100.461 57.76Z"/><path d="M917.098 3008.58c122.842-19.61 256.342-404.91 123.082-493.59-84.869-56.47-232.825-31.53-335.954-1.68-94.732 27.43-252.475 118.94-284.389 250.1-18.552 76.21 3.991 183.42 68.581 214.43 51.486 24.71 117.825 3.46 129.505 1.83 69.04-37.14 74.623-56.04 126.03-68.76 68.065-16.82 121.805 105.91 173.145 97.67Z"/><path d="M1016.64 3137.46c135.64-36.15 229.3-582.77 36.09-698.14-124.692-74.45-311.534-29.79-428.731 17.56-106.021 42.83-301.484 177.58-336.436 359.87-21.085 109.93 14.102 263.43 110.359 304.34 77.347 32.88 176.127-.86 191.327-8.13 106.267-50.8 107.613-91.17 181.596-113.08 98.275-29.18 174.759 156.48 245.795 137.58Z"/><path d="M1110.2 3260.48c150.21-52.15 202.02-760.08-50.9-902.7-164.689-92.05-390.339-28.15-521.503 36.79-117.433 58.13-350.37 236.12-388.539 469.65-23.461 143.55 24.213 343.41 152.149 394.28 103.252 41.02 233.688-7.09 253.159-18.06 136.982-77.2 140.525-126.51 237.062-157.45 128.508-41.55 228.652 208.71 318.572 177.49Z"/><path d="M200.688 3394.28c129.113 49.14 291.126-13.27 314.992-28.02 167.327-103.42 173.514-161.46 292.572-201.73 158.762-53.69 283.168 261.8 391.218 217.42 165.97-68.17 175.28-938.31-137.88-1107.27-204.341-110.25-469.236-26.6-614.289 56.03-128.822 73.38-399.064 294.59-440.54 579.42-25.782 177.16 34.29 423.39 193.927 484.15ZM1597.82 3483.93c-50.86.43-111.85 88.62-66.24 103.35 26.34 8.51 96.09-4.96 123.48-28.93 38.59-33.73-22.25-74.72-57.24-74.42Z"/><path d="M1459.6 3574.93c4.98 11.83 28.28 17.09 49.55 31.5 43.13 29.25 49.32 43.15 79.96 60.79 11.95 6.89 28.02 15.94 43.71 11.8 24.04-6.36 30.03-33.86 60.54-82.3 39.54-62.94 54.52-79.21 43.22-112.56-2.63-7.76-6.04-32.87-25.09-48.19-26.37-21.18-57.29-4.82-95.94-18.84-46.42-16.81-69.43-46.74-89.58-33.51-14.19 9.31-14.72 34.82-25.34 79.23-8.1 33.84-13.18 56.04-23.03 74.15-11.8 21.56-23.54 24.77-18 37.93Z"/><path d="M1381.86 3550.26c.86 20.98 33.82 31.13 60.98 61.45 55.7 62.19 29.9 106.62 74.55 152.06 18.94 19.28 48.67 37.97 78.46 34.35 42.29-5.15 56.49-48.82 121.58-137.37 85.11-115.77 121.36-138.44 113.41-200.14-1.62-12.57-3.2-60.85-36.46-89.91-44.36-38.76-97.53-3.5-166.97-32.63-77.59-32.5-106.59-101.98-132.76-87.6-18.17 9.98-11.21 50.19-25.17 128.62-9.89 55.75-16 88.32-35.76 115.01-24.94 33.65-52.79 33.37-51.86 56.16Z"/><path d="M1304.04 3525.86c-3.36 30.07 39.32 45.19 72.42 91.41 68.15 95.14 9.39 169.52 69.13 243.33 25.57 31.58 69.42 59.83 113.22 56.88 60.7-4.08 83.13-63.59 182.71-192.43 130.93-168.36 187.32-198 183.62-287.72-.73-17.49-.39-88.81-47.84-131.67-62.35-56.29-137.88-2.07-237.99-46.4-108.84-48.19-143.73-157.2-175.99-141.71-22.14 10.71-7.96 65.58-25.01 178.02-11.77 77.66-18.86 120.46-48.5 155.87-38.2 45.64-82.17 42.03-85.77 74.42Z"/><path d="M1226.05 3501.53c-7.55 39.12 44.72 59.26 83.85 121.35 80.46 128.17-11.38 232.18 63.72 334.6 32.11 43.82 90.2 81.66 147.97 79.44 79.16-3.05 109.46-78.6 243.8-247.52 176.34-221.23 253.08-257.77 253.76-375.29.14-22.41 2.36-116.71-59.23-173.42-80.42-73.76-178.16-.61-308.99-60.18-140.12-63.81-180.89-212.45-219.12-195.82-26.12 11.41-4.71 80.98-24.84 227.42-13.69 99.58-21.72 152.55-61.24 196.74-51.49 57.56-111.57 50.61-119.68 92.68Z"/><path d="M1147.9 3477.21c12.64-51.78 88.8-41.47 153.58-110.95 49.4-52.98 58.38-116.09 73.98-237.59 23.17-180.44-5.44-264.73 24.66-276.82 44.25-17.79 90.89 170.49 262.31 249.92 161.48 74.82 281.65-17.42 380.01 73.97 75.82 70.46 71.6 187.73 70.62 215.17-5.23 145.29-102.2 188.76-323.96 462.86-169.1 209-207.24 300.57-304.91 302.6-71.74 1.49-144.1-45.95-182.71-101.99-90.43-131.12 34.67-264.84-58.29-425.87-45.05-78.04-107.04-103.13-95.29-151.3ZM1794.2 2643.84c-13.27 6.73-41.14-6.23-43.61-26.41-2.79-22.9 28.74-41.84 42.6-35.95 16.39 6.97 18.62 53.46 1.01 62.36Z"/><path d="M1831.59 2522.19c22.62 21.15 32.51 59.96 43.82 126.48 11.21 65.97 9.45 113.2-.4 116.63-5.37 1.84-20.58-12.62-33.63-23.23-24.43-19.79-66.24-17.59-76.96-19.73-39.23-7.85-50.75-22.42-67.15-50.32-7.59-12.89-25.29-41.47-33.08-75.09-11.88-50.91-65.14-66.6-58.65-87.01 5.46-17.04 58.22-21.17 92.43-21.66 49.04-.69 98.65 1.27 133.62 33.93Z"/><path d="M1870.8 2465.34c37.19 37.79 51.82 101.21 74.35 219.81 22.89 119.18 22.74 200.93 11.46 203.97-8.46 2.33-35.87-27.13-59.16-48.19-43.91-39.86-122.51-33.3-138.71-35.86-73.87-11.41-92.07-38.74-120.7-90.41-11.93-21.52-44.65-73.97-59.56-135.91-22.95-94.89-131.74-119.74-122.74-154.92 7.53-29.29 108.41-33.78 171.89-31.38 89.64 3.49 180.34 9 243.17 72.89Z"/><path d="M1909.8 2408.85c51.78 54.42 70.98 142.5 104.86 313.15 34.4 172.42 36 288.5 23.34 291.39-11.61 2.69-51.19-41.69-84.66-73.26-63.28-60.04-178.77-49-200.46-51.89-108.49-14.48-133.47-54.97-174.26-130.51-16.27-30.14-63.99-106.47-86.04-196.7-33.98-138.88-198.31-172.86-186.82-222.82 9.59-41.55 158.63-46.59 251.35-41.08 130.21 7.34 262.15 16.55 352.69 111.72Z"/><path d="M1948.68 2352.4c66.4 71.05 90.16 183.8 135.38 406.5 45.96 225.64 49.32 376.01 35.22 378.8-14.75 2.95-66.53-56.17-110.16-98.28-82.77-80.07-235.02-64.66-262.2-67.97-143.11-17.36-175.07-71.11-227.82-170.59-20.69-38.74-83.34-138.97-112.51-257.5-45.04-182.86-264.92-225.98-250.91-290.73 11.65-53.79 208.83-59.16 330.81-50.8 170.74 11.51 343.98 24.07 462.19 150.57Z"/><path d="M1740.9 3054.7c-177.71-20.17-216.35-87.42-281.37-210.7-24.99-47.39-102.7-171.47-139-318.28-56.04-226.86-331.5-279.12-314.99-358.63 13.72-66.12 259.03-71.73 410.28-60.52 211.32 15.69 425.84 31.58 571.69 189.4 81.03 87.7 109.33 225.08 165.9 499.84 57.43 278.88 62.55 463.51 47.08 466.22-17.93 3.14-81.83-70.6-135.64-123.28-102.27-100.1-291.27-80.34-323.95-84.05ZM295.971 3593.76c20.177-77.33 165.006-41 337.41-215.17 61.777-62.42 103.197-127.7 184.96-137.85 8.25-1.02 90.159-9.98 147.967 42.59 72.732 66.12 28.338 157.85 113.222 285.78 31.26 47.12 36.46 33.44 59.41 70.6 97.92 158.64-51.43 319.69 34.75 480.79 39.67 74.16 98.64 91.18 93.04 100.87-24.19 41.54-1025.283-419.23-970.759-627.61Z"/><path d="M840.76 3346.46c4.955.67 58.963-3.37 96.011 33.8 46.845 46.92 13.451 111.53 67.119 198.76 19.76 32.12 22.5 23.41 36.56 48.81 59.97 108.42-47.664 217.49 5.04 323.62 24.4 49.14 62.9 60.4 57.17 65.2-25.9 21.87-686.679-301.31-634.778-441.94 19.46-52.74 125.694-34.02 247.251-147.62 44.2-41.28 74.13-87.62 125.627-80.63Z"/><path d="M863.179 3452.18c1.413 3.56 27.823 3.48 44.054 25.01 21.075 27.93-1.367 65.13 21.03 111.72 8.216 17.1 8.553 13.45 13.709 27.04 22.139 58.47-43.998 115.23-24.661 166.46 9.046 24.12 25.86 28.24 21.377 29.52-32.777-4.65-347.5-183.7-298.951-256.27 18.956-28.35 86.808-27 157.092-80.06 26.713-20.18 44.2-34.95 66.35-23.42Z"/><path d="M885.599 3557.9c-17.398 50.83-85.889 68.11-110.976 49.31-36.992-27.75-5.437-63.88 36.992-70.6 31.712-4.99 93.892-36.87 73.984 21.29Z"/></g></svg>