<svg width="93" height="36" viewBox="0 0 93 36" fill="none" xmlns="http://www.w3.org/2000/svg">
<circle cx="75" cy="18" r="18" fill="#548C0C"/>
<path d="M7.146 22.524C8.334 22.524 9.432 22.146 10.278 21.516H12.942C11.682 23.172 9.558 24.27 7.146 24.27C3.294 24.27 0.18 21.48 0.18 18.024C0.18 14.586 3.294 11.796 7.146 11.796C9.558 11.796 11.682 12.876 12.942 14.532H10.278C9.432 13.92 8.334 13.542 7.146 13.542C4.392 13.542 2.16 15.558 2.16 18.024C2.16 20.508 4.392 22.524 7.146 22.524ZM18.5171 14.784C21.4871 14.784 23.8811 16.908 23.8811 19.536C23.8811 22.146 21.4871 24.27 18.5171 24.27C15.5651 24.27 13.1711 22.146 13.1711 19.536C13.1711 16.908 15.5651 14.784 18.5171 14.784ZM18.5171 22.524C20.3891 22.524 21.8831 21.174 21.8831 19.536C21.8831 17.88 20.3891 16.53 18.5171 16.53C16.6631 16.53 15.1511 17.88 15.1511 19.536C15.1511 21.174 16.6631 22.524 18.5171 22.524ZM27.6632 22.524H28.9052V24.27H27.6632C26.0072 24.27 24.6752 23.154 24.6752 21.768V12.048H26.6552V21.768C26.6552 22.182 27.1052 22.524 27.6632 22.524ZM32.4444 22.524H33.6864V24.27H32.4444C30.7884 24.27 29.4564 23.154 29.4564 21.768V12.048H31.4364V21.768C31.4364 22.182 31.8864 22.524 32.4444 22.524ZM42.3972 15.036H44.3952V24.018H42.3972V19.536C42.3972 17.88 40.9032 16.53 39.0312 16.53C37.1772 16.53 35.6652 17.88 35.6652 19.536C35.6652 21.174 36.6732 22.524 37.9152 22.524C39.1572 22.524 40.1652 21.408 40.1652 20.022H42.1452C42.1452 22.362 40.2552 24.27 37.9152 24.27C35.5752 24.27 33.6852 22.146 33.6852 19.536C33.6852 16.908 36.0792 14.784 39.0312 14.784C39.8772 14.784 40.6872 14.964 41.3892 15.27C41.8572 15.468 42.2172 15.846 42.4332 16.296L42.7752 17.088L43.0272 16.98L42.5772 15.972C42.4692 15.72 42.3972 15.45 42.3972 15.162V15.036ZM53.9636 15.036H55.9616V22.524C55.9616 25.134 53.5676 27.258 50.5976 27.258H47.4836V25.512H50.5976C52.4696 25.512 53.9636 24.18 53.9636 22.524V19.536C53.9636 17.88 52.4696 16.53 50.5976 16.53C48.7436 16.53 47.2316 17.88 47.2316 19.536C47.2316 21.174 48.2396 22.524 49.4816 22.524C50.7236 22.524 51.7316 21.408 51.7316 20.022H53.7116C53.7116 22.362 51.8216 24.27 49.4816 24.27C47.1416 24.27 45.2516 22.146 45.2516 19.536C45.2516 16.908 47.6456 14.784 50.5976 14.784C51.4436 14.784 52.2536 14.964 52.9556 15.27C53.4236 15.468 53.7836 15.846 53.9996 16.296L54.3416 17.088L54.5936 16.98L54.1436 15.972C54.0356 15.72 53.9636 15.45 53.9636 15.162V15.036Z" fill="#2E2D2B"/>
<path d="M67.4924 19.536C67.4924 19.788 67.4744 20.04 67.4204 20.274H58.8704C59.2484 21.57 60.5624 22.524 62.1284 22.524C63.1364 22.524 64.0184 22.128 64.6484 21.516H66.9884C66.1424 23.136 64.2884 24.27 62.1284 24.27C59.1764 24.27 56.7824 22.146 56.7824 19.536C56.7824 16.908 59.1764 14.784 62.1284 14.784C64.8104 14.784 67.0244 16.512 67.4204 18.78C67.4744 19.032 67.4924 19.266 67.4924 19.536ZM59.5364 18.78H65.3864C65.0264 17.484 63.6944 16.53 62.1284 16.53C60.6524 16.53 59.4104 17.376 58.9424 18.546C58.9064 18.69 58.8344 18.816 58.7624 18.924L58.4024 19.446L58.6364 19.608L58.9784 19.068C59.1044 18.888 59.3024 18.78 59.5364 18.78ZM73.6869 14.784C76.0269 14.802 77.9169 16.71 77.9169 19.05V24.018H75.9189V19.032C75.9189 17.646 74.9109 16.53 73.6689 16.53C71.8149 16.53 70.3029 17.88 70.3029 19.536V24.018H68.3229V15.036H70.3029V15.162C70.3029 15.45 70.2489 15.72 70.1409 15.972L69.6909 16.98L69.9249 17.088L70.2849 16.296C70.4829 15.846 70.8429 15.486 71.2929 15.288C72.0129 14.964 72.8229 14.784 73.6869 14.784Z" fill="white"/>
</svg>
